<?xml version="1.0" encoding="UTF-8" standalone="no"?>
<!DOCTYPE svg PUBLIC "-//W3C//DTD SVG 1.1//EN" "http://www.w3.org/Graphics/SVG/1.1/DTD/svg11.dtd">
<svg width="100%" height="100%" viewBox="0 0 128 128" version="1.1" xmlns="http://www.w3.org/2000/svg" xmlns:xlink="http://www.w3.org/1999/xlink" xml:space="preserve" xmlns:serif="http://www.serif.com/" style="fill-rule:evenodd;clip-rule:evenodd;stroke-linejoin:round;stroke-miterlimit:2;">
    <path d="M64,0C99.323,0 128,28.677 128,64C128,99.323 99.323,128 64,128C28.677,128 0,99.323 0,64C0,28.677 28.677,0 64,0ZM79.495,68C77.717,74.898 71.45,80 64,80C56.55,80 50.283,74.898 48.505,68L8.141,68C10.195,97.043 34.438,120 64,120C93.562,120 117.805,97.043 119.859,68L79.495,68ZM73.166,59.997C71.621,56.468 68.096,54 64,54C59.903,54 56.378,56.469 54.833,60L54.809,60.057L54.805,60.066L54.785,60.114L54.778,60.128L54.761,60.171L54.753,60.188L54.737,60.228L54.729,60.247L54.714,60.285L54.706,60.306L54.691,60.343L54.682,60.365L54.668,60.4L54.66,60.423L54.646,60.458L54.637,60.482L54.625,60.516L54.616,60.541L54.603,60.575L54.594,60.599L54.582,60.633L54.573,60.658L54.561,60.692L54.552,60.717L54.541,60.75L54.532,60.776L54.521,60.809L54.512,60.835L54.501,60.869L54.492,60.895L54.482,60.928L54.473,60.954L54.463,60.987L54.454,61.014L54.444,61.047L54.436,61.074L54.426,61.107L54.418,61.134L54.408,61.167L54.4,61.194L54.39,61.227L54.382,61.254L54.373,61.287L54.365,61.314L54.356,61.348L54.349,61.375L54.34,61.409L54.333,61.435L54.324,61.47L54.317,61.496L54.308,61.531L54.301,61.557L54.292,61.593L54.286,61.618L54.277,61.655L54.271,61.679L54.262,61.718L54.257,61.741L54.247,61.784L54.243,61.802L54.23,61.862L54.229,61.864L54.216,61.926L54.213,61.941L54.203,61.988L54.198,62.01L54.19,62.05L54.186,62.075L54.178,62.112L54.173,62.138L54.167,62.174L54.162,62.202L54.155,62.236L54.15,62.265L54.144,62.299L54.14,62.328L54.134,62.362L54.129,62.391L54.124,62.425L54.119,62.454L54.114,62.487L54.109,62.517L54.105,62.551L54.1,62.58L54.096,62.614L54.091,62.644L54.087,62.677L54.083,62.707L54.079,62.741L54.075,62.771L54.071,62.804L54.067,62.835L54.064,62.868L54.06,62.898L54.057,62.932L54.053,62.962L54.05,62.996L54.047,63.026L54.044,63.06L54.041,63.091L54.038,63.124L54.035,63.155L54.033,63.189L54.03,63.219L54.028,63.253L54.025,63.284L54.023,63.318L54.021,63.348L54.019,63.383L54.017,63.413L54.015,63.447L54.013,63.478L54.012,63.513L54.01,63.543L54.009,63.578L54.008,63.608L54.006,63.643L54.005,63.673L54.004,63.709L54.003,63.738L54.003,63.775L54.002,63.803L54.001,63.843L54.001,63.869L54,63.913L54,63.934L54,64L54,64.066L54.001,64.131L54.002,64.197L54.003,64.262L54.005,64.327L54.008,64.392L54.01,64.457L54.013,64.522L54.017,64.587L54.021,64.652L54.023,64.682L54.025,64.716L54.028,64.747L54.03,64.781L54.033,64.811L54.035,64.845L54.038,64.876L54.041,64.909L54.044,64.94L54.047,64.974L54.05,65.004L54.053,65.038L54.057,65.068L54.06,65.102L54.064,65.132L54.067,65.165L54.071,65.196L54.075,65.229L54.079,65.259L54.083,65.293L54.087,65.323L54.091,65.356L54.096,65.386L54.1,65.42L54.105,65.449L54.109,65.483L54.114,65.513L54.124,65.575L54.134,65.638L54.144,65.701L54.155,65.764L54.167,65.826L54.178,65.888L54.19,65.95L54.203,66.012L54.216,66.074L54.23,66.138L54.243,66.198L54.257,66.259L54.271,66.321L54.286,66.382L54.301,66.443L54.317,66.504L54.333,66.565L54.349,66.625L54.365,66.686L54.382,66.746L54.4,66.806L54.408,66.833L54.418,66.866L54.426,66.893L54.436,66.926L54.444,66.953L54.454,66.986L54.463,67.013L54.473,67.046L54.482,67.072L54.492,67.105L54.501,67.131L54.512,67.165L54.521,67.191L54.532,67.224L54.541,67.25L54.552,67.283L54.561,67.308L54.573,67.342L54.582,67.367L54.594,67.401L54.603,67.425L54.625,67.484L54.646,67.542L54.668,67.6L54.691,67.657L54.714,67.715L54.737,67.772L54.761,67.829L54.785,67.886L54.809,67.943L54.833,68C56.378,71.531 59.903,74 64,74C68.097,74 71.622,71.531 73.167,68L73.191,67.943L73.195,67.934L73.215,67.886L73.222,67.872L73.239,67.829L73.247,67.812L73.263,67.772L73.271,67.753L73.286,67.715L73.294,67.694L73.309,67.657L73.318,67.635L73.332,67.6L73.34,67.577L73.354,67.542L73.363,67.518L73.375,67.484L73.384,67.459L73.397,67.425L73.406,67.401L73.418,67.367L73.427,67.342L73.439,67.308L73.448,67.283L73.459,67.25L73.468,67.224L73.479,67.191L73.488,67.165L73.499,67.131L73.508,67.105L73.518,67.072L73.527,67.046L73.537,67.013L73.546,66.986L73.556,66.953L73.564,66.926L73.574,66.893L73.582,66.866L73.592,66.833L73.6,66.806L73.61,66.773L73.618,66.746L73.627,66.713L73.635,66.686L73.644,66.652L73.651,66.625L73.66,66.591L73.667,66.565L73.676,66.53L73.683,66.504L73.692,66.469L73.699,66.443L73.708,66.407L73.714,66.382L73.723,66.345L73.729,66.321L73.738,66.282L73.743,66.259L73.753,66.216L73.757,66.198L73.77,66.138L73.771,66.136L73.784,66.074L73.787,66.059L73.797,66.012L73.802,65.99L73.81,65.95L73.814,65.925L73.822,65.888L73.827,65.862L73.833,65.826L73.838,65.798L73.845,65.764L73.85,65.735L73.856,65.701L73.86,65.672L73.866,65.638L73.871,65.609L73.876,65.575L73.881,65.546L73.886,65.513L73.891,65.483L73.895,65.449L73.9,65.42L73.904,65.386L73.909,65.356L73.913,65.323L73.917,65.293L73.921,65.259L73.925,65.229L73.929,65.196L73.933,65.165L73.936,65.132L73.94,65.102L73.943,65.068L73.947,65.038L73.95,65.004L73.953,64.974L73.956,64.94L73.959,64.909L73.962,64.876L73.965,64.845L73.967,64.811L73.97,64.781L73.972,64.747L73.975,64.716L73.977,64.682L73.979,64.652L73.981,64.617L73.983,64.587L73.985,64.553L73.987,64.522L73.988,64.487L73.99,64.457L73.991,64.422L73.992,64.392L73.994,64.357L73.995,64.327L73.996,64.291L73.997,64.262L73.997,64.225L73.998,64.197L73.999,64.157L73.999,64.131L74,64.087L74,64.066L74,64L74,63.934L74,63.913L73.999,63.869L73.999,63.843L73.998,63.803L73.997,63.775L73.997,63.738L73.996,63.709L73.995,63.673L73.994,63.643L73.992,63.608L73.991,63.578L73.99,63.543L73.988,63.513L73.987,63.478L73.985,63.447L73.983,63.413L73.981,63.383L73.979,63.348L73.977,63.318L73.975,63.284L73.972,63.253L73.97,63.219L73.967,63.189L73.965,63.155L73.962,63.124L73.959,63.091L73.956,63.06L73.953,63.026L73.95,62.996L73.947,62.962L73.943,62.932L73.94,62.898L73.936,62.868L73.933,62.835L73.929,62.804L73.925,62.771L73.921,62.741L73.917,62.707L73.913,62.677L73.909,62.644L73.904,62.614L73.9,62.58L73.895,62.551L73.891,62.517L73.886,62.487L73.881,62.454L73.876,62.425L73.871,62.391L73.866,62.362L73.86,62.328L73.856,62.299L73.85,62.265L73.845,62.236L73.838,62.202L73.833,62.174L73.827,62.138L73.822,62.112L73.814,62.075L73.81,62.05L73.802,62.01L73.797,61.988L73.787,61.941L73.784,61.926L73.771,61.864L73.77,61.862L73.757,61.802L73.753,61.784L73.743,61.741L73.738,61.718L73.729,61.679L73.723,61.655L73.714,61.618L73.708,61.593L73.699,61.557L73.692,61.531L73.683,61.496L73.676,61.47L73.667,61.435L73.66,61.409L73.651,61.375L73.644,61.348L73.635,61.314L73.627,61.287L73.618,61.254L73.61,61.227L73.6,61.194L73.592,61.167L73.582,61.134L73.574,61.107L73.564,61.074L73.556,61.047L73.546,61.014L73.537,60.987L73.527,60.954L73.518,60.928L73.508,60.895L73.499,60.869L73.488,60.835L73.479,60.809L73.468,60.776L73.459,60.75L73.448,60.717L73.439,60.692L73.427,60.658L73.418,60.633L73.406,60.599L73.397,60.575L73.384,60.541L73.375,60.516L73.363,60.482L73.354,60.458L73.34,60.423L73.332,60.4L73.318,60.365L73.309,60.343L73.294,60.306L73.286,60.285L73.271,60.247L73.263,60.228L73.247,60.188L73.239,60.171L73.222,60.128L73.215,60.114L73.195,60.066L73.191,60.057L73.167,60L73.166,59.997ZM119.859,60C117.805,30.957 93.562,8 64,8C34.438,8 10.195,30.957 8.141,60L48.505,60C50.283,53.102 56.55,48 64,48C71.45,48 77.717,53.102 79.495,60L119.859,60Z" style="fill:rgb(103,58,183);"/>
    <g transform="matrix(1,0,0,1,2.21473,-2.21473)">
        <path d="M48.505,68C50.284,74.898 56.551,80 64,80C71.449,80 77.716,74.898 79.495,68L119.859,68C117.805,97.044 93.562,120 64,120C34.438,120 10.195,97.044 8.141,68L48.505,68ZM73.166,59.997C71.621,56.468 68.096,54 64,54C59.903,54 56.378,56.469 54.833,60L54.809,60.057L54.805,60.066L54.785,60.114L54.778,60.128L54.761,60.171L54.753,60.188L54.737,60.228L54.729,60.247L54.714,60.285L54.706,60.306L54.691,60.343L54.682,60.365L54.668,60.4L54.66,60.423L54.646,60.458L54.637,60.482L54.625,60.516L54.616,60.541L54.603,60.575L54.594,60.599L54.582,60.633L54.573,60.658L54.561,60.692L54.552,60.717L54.541,60.75L54.532,60.776L54.521,60.809L54.512,60.835L54.501,60.869L54.492,60.895L54.482,60.928L54.473,60.954L54.463,60.987L54.454,61.014L54.444,61.047L54.436,61.074L54.426,61.107L54.418,61.134L54.408,61.167L54.4,61.194L54.39,61.227L54.382,61.254L54.373,61.287L54.365,61.314L54.356,61.348L54.349,61.375L54.34,61.409L54.333,61.435L54.324,61.47L54.317,61.496L54.308,61.531L54.301,61.557L54.292,61.593L54.286,61.618L54.277,61.655L54.271,61.679L54.262,61.718L54.257,61.741L54.247,61.784L54.243,61.802L54.23,61.862L54.229,61.864L54.216,61.926L54.213,61.941L54.203,61.988L54.198,62.01L54.19,62.05L54.186,62.075L54.178,62.112L54.173,62.138L54.167,62.174L54.162,62.202L54.155,62.236L54.15,62.265L54.144,62.299L54.14,62.328L54.134,62.362L54.129,62.391L54.124,62.425L54.119,62.454L54.114,62.487L54.109,62.517L54.105,62.551L54.1,62.58L54.096,62.614L54.091,62.644L54.087,62.677L54.083,62.707L54.079,62.741L54.075,62.771L54.071,62.804L54.067,62.835L54.064,62.868L54.06,62.898L54.057,62.932L54.053,62.962L54.05,62.996L54.047,63.026L54.044,63.06L54.041,63.091L54.038,63.124L54.035,63.155L54.033,63.189L54.03,63.219L54.028,63.253L54.025,63.284L54.023,63.318L54.021,63.348L54.019,63.383L54.017,63.413L54.015,63.447L54.013,63.478L54.012,63.513L54.01,63.543L54.009,63.578L54.008,63.608L54.006,63.643L54.005,63.673L54.004,63.709L54.003,63.738L54.003,63.775L54.002,63.803L54.001,63.843L54.001,63.869L54,63.913L54,63.934L54,64L54,64.066L54.001,64.131L54.002,64.197L54.003,64.262L54.005,64.327L54.008,64.392L54.01,64.457L54.013,64.522L54.017,64.587L54.021,64.652L54.023,64.682L54.025,64.716L54.028,64.747L54.03,64.781L54.033,64.811L54.035,64.845L54.038,64.876L54.041,64.909L54.044,64.94L54.047,64.974L54.05,65.004L54.053,65.038L54.057,65.068L54.06,65.102L54.064,65.132L54.067,65.165L54.071,65.196L54.075,65.229L54.079,65.259L54.083,65.293L54.087,65.323L54.091,65.356L54.096,65.386L54.1,65.42L54.105,65.449L54.109,65.483L54.114,65.513L54.124,65.575L54.134,65.638L54.144,65.701L54.155,65.764L54.167,65.826L54.178,65.888L54.19,65.95L54.203,66.012L54.216,66.074L54.23,66.138L54.243,66.198L54.257,66.259L54.271,66.321L54.286,66.382L54.301,66.443L54.317,66.504L54.333,66.565L54.349,66.625L54.365,66.686L54.382,66.746L54.4,66.806L54.408,66.833L54.418,66.866L54.426,66.893L54.436,66.926L54.444,66.953L54.454,66.986L54.463,67.013L54.473,67.046L54.482,67.072L54.492,67.105L54.501,67.131L54.512,67.165L54.521,67.191L54.532,67.224L54.541,67.25L54.552,67.283L54.561,67.308L54.573,67.342L54.582,67.367L54.594,67.401L54.603,67.425L54.625,67.484L54.646,67.542L54.668,67.6L54.691,67.657L54.714,67.715L54.737,67.772L54.761,67.829L54.785,67.886L54.809,67.943L54.833,68C56.378,71.531 59.903,74 64,74C68.097,74 71.622,71.531 73.167,68L73.191,67.943L73.195,67.934L73.215,67.886L73.222,67.872L73.239,67.829L73.247,67.812L73.263,67.772L73.271,67.753L73.286,67.715L73.294,67.694L73.309,67.657L73.318,67.635L73.332,67.6L73.34,67.577L73.354,67.542L73.363,67.518L73.375,67.484L73.384,67.459L73.397,67.425L73.406,67.401L73.418,67.367L73.427,67.342L73.439,67.308L73.448,67.283L73.459,67.25L73.468,67.224L73.479,67.191L73.488,67.165L73.499,67.131L73.508,67.105L73.518,67.072L73.527,67.046L73.537,67.013L73.546,66.986L73.556,66.953L73.564,66.926L73.574,66.893L73.582,66.866L73.592,66.833L73.6,66.806L73.61,66.773L73.618,66.746L73.627,66.713L73.635,66.686L73.644,66.652L73.651,66.625L73.66,66.591L73.667,66.565L73.676,66.53L73.683,66.504L73.692,66.469L73.699,66.443L73.708,66.407L73.714,66.382L73.723,66.345L73.729,66.321L73.738,66.282L73.743,66.259L73.753,66.216L73.757,66.198L73.77,66.138L73.771,66.136L73.784,66.074L73.787,66.059L73.797,66.012L73.802,65.99L73.81,65.95L73.814,65.925L73.822,65.888L73.827,65.862L73.833,65.826L73.838,65.798L73.845,65.764L73.85,65.735L73.856,65.701L73.86,65.672L73.866,65.638L73.871,65.609L73.876,65.575L73.881,65.546L73.886,65.513L73.891,65.483L73.895,65.449L73.9,65.42L73.904,65.386L73.909,65.356L73.913,65.323L73.917,65.293L73.921,65.259L73.925,65.229L73.929,65.196L73.933,65.165L73.936,65.132L73.94,65.102L73.943,65.068L73.947,65.038L73.95,65.004L73.953,64.974L73.956,64.94L73.959,64.909L73.962,64.876L73.965,64.845L73.967,64.811L73.97,64.781L73.972,64.747L73.975,64.716L73.977,64.682L73.979,64.652L73.981,64.617L73.983,64.587L73.985,64.553L73.987,64.522L73.988,64.487L73.99,64.457L73.991,64.422L73.992,64.392L73.994,64.357L73.995,64.327L73.996,64.291L73.997,64.262L73.997,64.225L73.998,64.197L73.999,64.157L73.999,64.131L74,64.087L74,64.066L74,64L74,63.934L74,63.913L73.999,63.869L73.999,63.843L73.998,63.803L73.997,63.775L73.997,63.738L73.996,63.709L73.995,63.673L73.994,63.643L73.992,63.608L73.991,63.578L73.99,63.543L73.988,63.513L73.987,63.478L73.985,63.447L73.983,63.413L73.981,63.383L73.979,63.348L73.977,63.318L73.975,63.284L73.972,63.253L73.97,63.219L73.967,63.189L73.965,63.155L73.962,63.124L73.959,63.091L73.956,63.06L73.953,63.026L73.95,62.996L73.947,62.962L73.943,62.932L73.94,62.898L73.936,62.868L73.933,62.835L73.929,62.804L73.925,62.771L73.921,62.741L73.917,62.707L73.913,62.677L73.909,62.644L73.904,62.614L73.9,62.58L73.895,62.551L73.891,62.517L73.886,62.487L73.881,62.454L73.876,62.425L73.871,62.391L73.866,62.362L73.86,62.328L73.856,62.299L73.85,62.265L73.845,62.236L73.838,62.202L73.833,62.174L73.827,62.138L73.822,62.112L73.814,62.075L73.81,62.05L73.802,62.01L73.797,61.988L73.787,61.941L73.784,61.926L73.771,61.864L73.77,61.862L73.757,61.802L73.753,61.784L73.743,61.741L73.738,61.718L73.729,61.679L73.723,61.655L73.714,61.618L73.708,61.593L73.699,61.557L73.692,61.531L73.683,61.496L73.676,61.47L73.667,61.435L73.66,61.409L73.651,61.375L73.644,61.348L73.635,61.314L73.627,61.287L73.618,61.254L73.61,61.227L73.6,61.194L73.592,61.167L73.582,61.134L73.574,61.107L73.564,61.074L73.556,61.047L73.546,61.014L73.537,60.987L73.527,60.954L73.518,60.928L73.508,60.895L73.499,60.869L73.488,60.835L73.479,60.809L73.468,60.776L73.459,60.75L73.448,60.717L73.439,60.692L73.427,60.658L73.418,60.633L73.406,60.599L73.397,60.575L73.384,60.541L73.375,60.516L73.363,60.482L73.354,60.458L73.34,60.423L73.332,60.4L73.318,60.365L73.309,60.343L73.294,60.306L73.286,60.285L73.271,60.247L73.263,60.228L73.247,60.188L73.239,60.171L73.222,60.128L73.215,60.114L73.195,60.066L73.191,60.057L73.167,60L73.166,59.997ZM119.859,60C117.805,30.957 93.562,8 64,8C34.438,8 10.195,30.957 8.141,60L48.505,60C50.283,53.102 56.55,48 64,48C71.45,48 77.717,53.102 79.495,60L119.859,60Z"/>
    </g>
    <g transform="matrix(1,0,0,1,4.03194,-4.03194)">
        <path d="M48.505,68C50.284,74.898 56.551,80 64,80C71.449,80 77.716,74.898 79.495,68L119.859,68C117.805,97.044 93.562,120 64,120C34.438,120 10.195,97.044 8.141,68L48.505,68ZM73.166,59.997C71.621,56.468 68.096,54 64,54C59.903,54 56.378,56.469 54.833,60L54.809,60.057L54.805,60.066L54.785,60.114L54.778,60.128L54.761,60.171L54.753,60.188L54.737,60.228L54.729,60.247L54.714,60.285L54.706,60.306L54.691,60.343L54.682,60.365L54.668,60.4L54.66,60.423L54.646,60.458L54.637,60.482L54.625,60.516L54.616,60.541L54.603,60.575L54.594,60.599L54.582,60.633L54.573,60.658L54.561,60.692L54.552,60.717L54.541,60.75L54.532,60.776L54.521,60.809L54.512,60.835L54.501,60.869L54.492,60.895L54.482,60.928L54.473,60.954L54.463,60.987L54.454,61.014L54.444,61.047L54.436,61.074L54.426,61.107L54.418,61.134L54.408,61.167L54.4,61.194L54.39,61.227L54.382,61.254L54.373,61.287L54.365,61.314L54.356,61.348L54.349,61.375L54.34,61.409L54.333,61.435L54.324,61.47L54.317,61.496L54.308,61.531L54.301,61.557L54.292,61.593L54.286,61.618L54.277,61.655L54.271,61.679L54.262,61.718L54.257,61.741L54.247,61.784L54.243,61.802L54.23,61.862L54.229,61.864L54.216,61.926L54.213,61.941L54.203,61.988L54.198,62.01L54.19,62.05L54.186,62.075L54.178,62.112L54.173,62.138L54.167,62.174L54.162,62.202L54.155,62.236L54.15,62.265L54.144,62.299L54.14,62.328L54.134,62.362L54.129,62.391L54.124,62.425L54.119,62.454L54.114,62.487L54.109,62.517L54.105,62.551L54.1,62.58L54.096,62.614L54.091,62.644L54.087,62.677L54.083,62.707L54.079,62.741L54.075,62.771L54.071,62.804L54.067,62.835L54.064,62.868L54.06,62.898L54.057,62.932L54.053,62.962L54.05,62.996L54.047,63.026L54.044,63.06L54.041,63.091L54.038,63.124L54.035,63.155L54.033,63.189L54.03,63.219L54.028,63.253L54.025,63.284L54.023,63.318L54.021,63.348L54.019,63.383L54.017,63.413L54.015,63.447L54.013,63.478L54.012,63.513L54.01,63.543L54.009,63.578L54.008,63.608L54.006,63.643L54.005,63.673L54.004,63.709L54.003,63.738L54.003,63.775L54.002,63.803L54.001,63.843L54.001,63.869L54,63.913L54,63.934L54,64L54,64.066L54.001,64.131L54.002,64.197L54.003,64.262L54.005,64.327L54.008,64.392L54.01,64.457L54.013,64.522L54.017,64.587L54.021,64.652L54.023,64.682L54.025,64.716L54.028,64.747L54.03,64.781L54.033,64.811L54.035,64.845L54.038,64.876L54.041,64.909L54.044,64.94L54.047,64.974L54.05,65.004L54.053,65.038L54.057,65.068L54.06,65.102L54.064,65.132L54.067,65.165L54.071,65.196L54.075,65.229L54.079,65.259L54.083,65.293L54.087,65.323L54.091,65.356L54.096,65.386L54.1,65.42L54.105,65.449L54.109,65.483L54.114,65.513L54.124,65.575L54.134,65.638L54.144,65.701L54.155,65.764L54.167,65.826L54.178,65.888L54.19,65.95L54.203,66.012L54.216,66.074L54.23,66.138L54.243,66.198L54.257,66.259L54.271,66.321L54.286,66.382L54.301,66.443L54.317,66.504L54.333,66.565L54.349,66.625L54.365,66.686L54.382,66.746L54.4,66.806L54.408,66.833L54.418,66.866L54.426,66.893L54.436,66.926L54.444,66.953L54.454,66.986L54.463,67.013L54.473,67.046L54.482,67.072L54.492,67.105L54.501,67.131L54.512,67.165L54.521,67.191L54.532,67.224L54.541,67.25L54.552,67.283L54.561,67.308L54.573,67.342L54.582,67.367L54.594,67.401L54.603,67.425L54.625,67.484L54.646,67.542L54.668,67.6L54.691,67.657L54.714,67.715L54.737,67.772L54.761,67.829L54.785,67.886L54.809,67.943L54.833,68C56.378,71.531 59.903,74 64,74C68.097,74 71.622,71.531 73.167,68L73.191,67.943L73.195,67.934L73.215,67.886L73.222,67.872L73.239,67.829L73.247,67.812L73.263,67.772L73.271,67.753L73.286,67.715L73.294,67.694L73.309,67.657L73.318,67.635L73.332,67.6L73.34,67.577L73.354,67.542L73.363,67.518L73.375,67.484L73.384,67.459L73.397,67.425L73.406,67.401L73.418,67.367L73.427,67.342L73.439,67.308L73.448,67.283L73.459,67.25L73.468,67.224L73.479,67.191L73.488,67.165L73.499,67.131L73.508,67.105L73.518,67.072L73.527,67.046L73.537,67.013L73.546,66.986L73.556,66.953L73.564,66.926L73.574,66.893L73.582,66.866L73.592,66.833L73.6,66.806L73.61,66.773L73.618,66.746L73.627,66.713L73.635,66.686L73.644,66.652L73.651,66.625L73.66,66.591L73.667,66.565L73.676,66.53L73.683,66.504L73.692,66.469L73.699,66.443L73.708,66.407L73.714,66.382L73.723,66.345L73.729,66.321L73.738,66.282L73.743,66.259L73.753,66.216L73.757,66.198L73.77,66.138L73.771,66.136L73.784,66.074L73.787,66.059L73.797,66.012L73.802,65.99L73.81,65.95L73.814,65.925L73.822,65.888L73.827,65.862L73.833,65.826L73.838,65.798L73.845,65.764L73.85,65.735L73.856,65.701L73.86,65.672L73.866,65.638L73.871,65.609L73.876,65.575L73.881,65.546L73.886,65.513L73.891,65.483L73.895,65.449L73.9,65.42L73.904,65.386L73.909,65.356L73.913,65.323L73.917,65.293L73.921,65.259L73.925,65.229L73.929,65.196L73.933,65.165L73.936,65.132L73.94,65.102L73.943,65.068L73.947,65.038L73.95,65.004L73.953,64.974L73.956,64.94L73.959,64.909L73.962,64.876L73.965,64.845L73.967,64.811L73.97,64.781L73.972,64.747L73.975,64.716L73.977,64.682L73.979,64.652L73.981,64.617L73.983,64.587L73.985,64.553L73.987,64.522L73.988,64.487L73.99,64.457L73.991,64.422L73.992,64.392L73.994,64.357L73.995,64.327L73.996,64.291L73.997,64.262L73.997,64.225L73.998,64.197L73.999,64.157L73.999,64.131L74,64.087L74,64.066L74,64L74,63.934L74,63.913L73.999,63.869L73.999,63.843L73.998,63.803L73.997,63.775L73.997,63.738L73.996,63.709L73.995,63.673L73.994,63.643L73.992,63.608L73.991,63.578L73.99,63.543L73.988,63.513L73.987,63.478L73.985,63.447L73.983,63.413L73.981,63.383L73.979,63.348L73.977,63.318L73.975,63.284L73.972,63.253L73.97,63.219L73.967,63.189L73.965,63.155L73.962,63.124L73.959,63.091L73.956,63.06L73.953,63.026L73.95,62.996L73.947,62.962L73.943,62.932L73.94,62.898L73.936,62.868L73.933,62.835L73.929,62.804L73.925,62.771L73.921,62.741L73.917,62.707L73.913,62.677L73.909,62.644L73.904,62.614L73.9,62.58L73.895,62.551L73.891,62.517L73.886,62.487L73.881,62.454L73.876,62.425L73.871,62.391L73.866,62.362L73.86,62.328L73.856,62.299L73.85,62.265L73.845,62.236L73.838,62.202L73.833,62.174L73.827,62.138L73.822,62.112L73.814,62.075L73.81,62.05L73.802,62.01L73.797,61.988L73.787,61.941L73.784,61.926L73.771,61.864L73.77,61.862L73.757,61.802L73.753,61.784L73.743,61.741L73.738,61.718L73.729,61.679L73.723,61.655L73.714,61.618L73.708,61.593L73.699,61.557L73.692,61.531L73.683,61.496L73.676,61.47L73.667,61.435L73.66,61.409L73.651,61.375L73.644,61.348L73.635,61.314L73.627,61.287L73.618,61.254L73.61,61.227L73.6,61.194L73.592,61.167L73.582,61.134L73.574,61.107L73.564,61.074L73.556,61.047L73.546,61.014L73.537,60.987L73.527,60.954L73.518,60.928L73.508,60.895L73.499,60.869L73.488,60.835L73.479,60.809L73.468,60.776L73.459,60.75L73.448,60.717L73.439,60.692L73.427,60.658L73.418,60.633L73.406,60.599L73.397,60.575L73.384,60.541L73.375,60.516L73.363,60.482L73.354,60.458L73.34,60.423L73.332,60.4L73.318,60.365L73.309,60.343L73.294,60.306L73.286,60.285L73.271,60.247L73.263,60.228L73.247,60.188L73.239,60.171L73.222,60.128L73.215,60.114L73.195,60.066L73.191,60.057L73.167,60L73.166,59.997ZM119.859,60C117.805,30.957 93.562,8 64,8C34.438,8 10.195,30.957 8.141,60L48.505,60C50.283,53.102 56.55,48 64,48C71.45,48 77.717,53.102 79.495,60L119.859,60Z" style="fill:rgb(255,152,0);"/>
    </g>
</svg>
